<mxfile host="app.diagrams.net" modified="2024-04-29T08:11:23.900Z" agent="Mozilla/5.0 (Windows NT 10.0; Win64; x64) AppleWebKit/537.36 (KHTML, like Gecko) Chrome/124.0.0.0 Safari/537.36" etag="cqP6yZRWttuHOTzMHkRD" version="24.3.1" type="device">
  <diagram id="C5RBs43oDa-KdzZeNtuy" name="Page-1">
    <mxGraphModel dx="2589" dy="813" grid="1" gridSize="10" guides="1" tooltips="1" connect="1" arrows="1" fold="1" page="1" pageScale="1" pageWidth="827" pageHeight="1169" math="0" shadow="0">
      <root>
        <mxCell id="WIyWlLk6GJQsqaUBKTNV-0" />
        <mxCell id="WIyWlLk6GJQsqaUBKTNV-1" parent="WIyWlLk6GJQsqaUBKTNV-0" />
        <mxCell id="FHOCbS_1Dj6Ym-kuLduI-0" value="DOKTER" style="rounded=0;whiteSpace=wrap;html=1;" vertex="1" parent="WIyWlLk6GJQsqaUBKTNV-1">
          <mxGeometry x="140" y="90" width="120" height="60" as="geometry" />
        </mxCell>
        <mxCell id="FHOCbS_1Dj6Ym-kuLduI-1" value="PASIEN" style="rounded=0;whiteSpace=wrap;html=1;" vertex="1" parent="WIyWlLk6GJQsqaUBKTNV-1">
          <mxGeometry x="530" y="90" width="120" height="60" as="geometry" />
        </mxCell>
        <mxCell id="FHOCbS_1Dj6Ym-kuLduI-2" value="PERAWAT" style="rounded=0;whiteSpace=wrap;html=1;" vertex="1" parent="WIyWlLk6GJQsqaUBKTNV-1">
          <mxGeometry x="90" y="430" width="120" height="60" as="geometry" />
        </mxCell>
        <mxCell id="FHOCbS_1Dj6Ym-kuLduI-3" value="RESEP" style="rounded=0;whiteSpace=wrap;html=1;" vertex="1" parent="WIyWlLk6GJQsqaUBKTNV-1">
          <mxGeometry x="550" y="400" width="120" height="60" as="geometry" />
        </mxCell>
        <mxCell id="FHOCbS_1Dj6Ym-kuLduI-4" value="OBAT" style="rounded=0;whiteSpace=wrap;html=1;" vertex="1" parent="WIyWlLk6GJQsqaUBKTNV-1">
          <mxGeometry x="380" y="640" width="120" height="60" as="geometry" />
        </mxCell>
        <mxCell id="FHOCbS_1Dj6Ym-kuLduI-6" value="Nm_Dokter" style="ellipse;html=1;whiteSpace=wrap;" vertex="1" parent="WIyWlLk6GJQsqaUBKTNV-1">
          <mxGeometry x="314" y="140" width="100" height="40" as="geometry" />
        </mxCell>
        <mxCell id="FHOCbS_1Dj6Ym-kuLduI-7" value="Spesialisasi" style="ellipse;html=1;whiteSpace=wrap;" vertex="1" parent="WIyWlLk6GJQsqaUBKTNV-1">
          <mxGeometry x="280" y="50" width="100" height="40" as="geometry" />
        </mxCell>
        <mxCell id="FHOCbS_1Dj6Ym-kuLduI-9" value="&lt;u&gt;Id_dokter&lt;/u&gt;" style="ellipse;html=1;whiteSpace=wrap;" vertex="1" parent="WIyWlLk6GJQsqaUBKTNV-1">
          <mxGeometry x="160" y="30" width="100" height="40" as="geometry" />
        </mxCell>
        <mxCell id="FHOCbS_1Dj6Ym-kuLduI-10" value="&lt;u&gt;Id_pasien&lt;/u&gt;" style="ellipse;html=1;whiteSpace=wrap;" vertex="1" parent="WIyWlLk6GJQsqaUBKTNV-1">
          <mxGeometry x="540" y="20" width="100" height="40" as="geometry" />
        </mxCell>
        <mxCell id="FHOCbS_1Dj6Ym-kuLduI-11" value="Nm_pasien" style="ellipse;html=1;whiteSpace=wrap;" vertex="1" parent="WIyWlLk6GJQsqaUBKTNV-1">
          <mxGeometry x="680" y="70" width="100" height="40" as="geometry" />
        </mxCell>
        <mxCell id="FHOCbS_1Dj6Ym-kuLduI-12" value="Tgl_lahir_pasien" style="ellipse;html=1;whiteSpace=wrap;" vertex="1" parent="WIyWlLk6GJQsqaUBKTNV-1">
          <mxGeometry x="700" y="130" width="100" height="40" as="geometry" />
        </mxCell>
        <mxCell id="FHOCbS_1Dj6Ym-kuLduI-13" value="&lt;u&gt;Id perawat&lt;/u&gt;" style="ellipse;html=1;whiteSpace=wrap;" vertex="1" parent="WIyWlLk6GJQsqaUBKTNV-1">
          <mxGeometry x="-10" y="430" width="100" height="40" as="geometry" />
        </mxCell>
        <mxCell id="FHOCbS_1Dj6Ym-kuLduI-14" value="Nm_perawat" style="ellipse;html=1;whiteSpace=wrap;" vertex="1" parent="WIyWlLk6GJQsqaUBKTNV-1">
          <mxGeometry x="234" y="410" width="100" height="40" as="geometry" />
        </mxCell>
        <mxCell id="FHOCbS_1Dj6Ym-kuLduI-15" value="Alamat" style="ellipse;html=1;whiteSpace=wrap;" vertex="1" parent="WIyWlLk6GJQsqaUBKTNV-1">
          <mxGeometry x="234" y="480" width="100" height="40" as="geometry" />
        </mxCell>
        <mxCell id="FHOCbS_1Dj6Ym-kuLduI-16" value="&lt;u&gt;Id_resep&lt;/u&gt;" style="ellipse;html=1;whiteSpace=wrap;" vertex="1" parent="WIyWlLk6GJQsqaUBKTNV-1">
          <mxGeometry x="560" y="350" width="100" height="40" as="geometry" />
        </mxCell>
        <mxCell id="FHOCbS_1Dj6Ym-kuLduI-17" value="Diagnosa" style="ellipse;html=1;whiteSpace=wrap;" vertex="1" parent="WIyWlLk6GJQsqaUBKTNV-1">
          <mxGeometry x="690" y="380" width="100" height="40" as="geometry" />
        </mxCell>
        <mxCell id="FHOCbS_1Dj6Ym-kuLduI-18" value="Tgl_resep" style="ellipse;html=1;whiteSpace=wrap;" vertex="1" parent="WIyWlLk6GJQsqaUBKTNV-1">
          <mxGeometry x="690" y="430" width="100" height="40" as="geometry" />
        </mxCell>
        <mxCell id="FHOCbS_1Dj6Ym-kuLduI-19" value="&lt;u&gt;Id_pasien&lt;/u&gt;" style="ellipse;html=1;whiteSpace=wrap;" vertex="1" parent="WIyWlLk6GJQsqaUBKTNV-1">
          <mxGeometry x="690" y="330" width="100" height="40" as="geometry" />
        </mxCell>
        <mxCell id="FHOCbS_1Dj6Ym-kuLduI-20" value="&lt;u&gt;Id_dokter&lt;/u&gt;" style="ellipse;html=1;whiteSpace=wrap;" vertex="1" parent="WIyWlLk6GJQsqaUBKTNV-1">
          <mxGeometry x="690" y="280" width="100" height="40" as="geometry" />
        </mxCell>
        <mxCell id="FHOCbS_1Dj6Ym-kuLduI-21" value="&lt;u&gt;Kode_obat&lt;/u&gt;" style="ellipse;html=1;whiteSpace=wrap;" vertex="1" parent="WIyWlLk6GJQsqaUBKTNV-1">
          <mxGeometry x="390" y="580" width="100" height="40" as="geometry" />
        </mxCell>
        <mxCell id="FHOCbS_1Dj6Ym-kuLduI-22" value="Nm_obat" style="ellipse;html=1;whiteSpace=wrap;" vertex="1" parent="WIyWlLk6GJQsqaUBKTNV-1">
          <mxGeometry x="550" y="640" width="100" height="40" as="geometry" />
        </mxCell>
        <mxCell id="FHOCbS_1Dj6Ym-kuLduI-23" value="Harga" style="ellipse;html=1;whiteSpace=wrap;" vertex="1" parent="WIyWlLk6GJQsqaUBKTNV-1">
          <mxGeometry x="540" y="720" width="100" height="40" as="geometry" />
        </mxCell>
        <mxCell id="FHOCbS_1Dj6Ym-kuLduI-24" value="Jumlah_stok" style="ellipse;html=1;whiteSpace=wrap;" vertex="1" parent="WIyWlLk6GJQsqaUBKTNV-1">
          <mxGeometry x="540" y="790" width="100" height="40" as="geometry" />
        </mxCell>
        <mxCell id="FHOCbS_1Dj6Ym-kuLduI-30" value="" style="edgeStyle=entityRelationEdgeStyle;fontSize=12;html=1;endArrow=ERoneToMany;rounded=0;exitX=1;exitY=0.5;exitDx=0;exitDy=0;entryX=0;entryY=0.5;entryDx=0;entryDy=0;" edge="1" parent="WIyWlLk6GJQsqaUBKTNV-1" source="FHOCbS_1Dj6Ym-kuLduI-56" target="FHOCbS_1Dj6Ym-kuLduI-1">
          <mxGeometry width="100" height="100" relative="1" as="geometry">
            <mxPoint x="270" y="190" as="sourcePoint" />
            <mxPoint x="370" y="90" as="targetPoint" />
          </mxGeometry>
        </mxCell>
        <mxCell id="FHOCbS_1Dj6Ym-kuLduI-31" value="" style="edgeStyle=entityRelationEdgeStyle;fontSize=12;html=1;endArrow=ERoneToMany;rounded=0;entryX=0.583;entryY=0.992;entryDx=0;entryDy=0;entryPerimeter=0;exitX=0.5;exitY=0;exitDx=0;exitDy=0;" edge="1" parent="WIyWlLk6GJQsqaUBKTNV-1" source="FHOCbS_1Dj6Ym-kuLduI-59" target="FHOCbS_1Dj6Ym-kuLduI-0">
          <mxGeometry width="100" height="100" relative="1" as="geometry">
            <mxPoint x="200" y="400" as="sourcePoint" />
            <mxPoint x="300" y="300" as="targetPoint" />
            <Array as="points">
              <mxPoint x="220" y="260" />
            </Array>
          </mxGeometry>
        </mxCell>
        <mxCell id="FHOCbS_1Dj6Ym-kuLduI-32" value="" style="edgeStyle=entityRelationEdgeStyle;fontSize=12;html=1;endArrow=ERoneToMany;rounded=0;exitX=1;exitY=1;exitDx=0;exitDy=0;entryX=-0.021;entryY=0.658;entryDx=0;entryDy=0;entryPerimeter=0;" edge="1" parent="WIyWlLk6GJQsqaUBKTNV-1" source="FHOCbS_1Dj6Ym-kuLduI-63" target="FHOCbS_1Dj6Ym-kuLduI-3">
          <mxGeometry width="100" height="100" relative="1" as="geometry">
            <mxPoint x="270.00000000000006" y="195.80000000000004" as="sourcePoint" />
            <mxPoint x="569.1199999999999" y="450" as="targetPoint" />
          </mxGeometry>
        </mxCell>
        <mxCell id="FHOCbS_1Dj6Ym-kuLduI-33" value="" style="edgeStyle=entityRelationEdgeStyle;fontSize=12;html=1;endArrow=ERoneToMany;rounded=0;exitX=0.382;exitY=0.978;exitDx=0;exitDy=0;exitPerimeter=0;entryX=1;entryY=0.25;entryDx=0;entryDy=0;" edge="1" parent="WIyWlLk6GJQsqaUBKTNV-1" source="FHOCbS_1Dj6Ym-kuLduI-61" target="FHOCbS_1Dj6Ym-kuLduI-4">
          <mxGeometry width="100" height="100" relative="1" as="geometry">
            <mxPoint x="600" y="590" as="sourcePoint" />
            <mxPoint x="700" y="490" as="targetPoint" />
          </mxGeometry>
        </mxCell>
        <mxCell id="FHOCbS_1Dj6Ym-kuLduI-34" value="" style="endArrow=none;html=1;rounded=0;exitX=1;exitY=0.5;exitDx=0;exitDy=0;entryX=0;entryY=0.5;entryDx=0;entryDy=0;" edge="1" parent="WIyWlLk6GJQsqaUBKTNV-1" source="FHOCbS_1Dj6Ym-kuLduI-4" target="FHOCbS_1Dj6Ym-kuLduI-22">
          <mxGeometry relative="1" as="geometry">
            <mxPoint x="440" y="740" as="sourcePoint" />
            <mxPoint x="600" y="740" as="targetPoint" />
          </mxGeometry>
        </mxCell>
        <mxCell id="FHOCbS_1Dj6Ym-kuLduI-35" value="" style="endArrow=none;html=1;rounded=0;exitX=1;exitY=0.5;exitDx=0;exitDy=0;entryX=0.033;entryY=0.175;entryDx=0;entryDy=0;entryPerimeter=0;" edge="1" parent="WIyWlLk6GJQsqaUBKTNV-1" source="FHOCbS_1Dj6Ym-kuLduI-4" target="FHOCbS_1Dj6Ym-kuLduI-23">
          <mxGeometry relative="1" as="geometry">
            <mxPoint x="440" y="730" as="sourcePoint" />
            <mxPoint x="600" y="730" as="targetPoint" />
          </mxGeometry>
        </mxCell>
        <mxCell id="FHOCbS_1Dj6Ym-kuLduI-36" value="" style="endArrow=none;html=1;rounded=0;exitX=1;exitY=0.5;exitDx=0;exitDy=0;entryX=0;entryY=0.25;entryDx=0;entryDy=0;entryPerimeter=0;" edge="1" parent="WIyWlLk6GJQsqaUBKTNV-1" source="FHOCbS_1Dj6Ym-kuLduI-4" target="FHOCbS_1Dj6Ym-kuLduI-24">
          <mxGeometry relative="1" as="geometry">
            <mxPoint x="410" y="740" as="sourcePoint" />
            <mxPoint x="570" y="740" as="targetPoint" />
          </mxGeometry>
        </mxCell>
        <mxCell id="FHOCbS_1Dj6Ym-kuLduI-37" value="" style="endArrow=none;html=1;rounded=0;exitX=1;exitY=0.75;exitDx=0;exitDy=0;entryX=0.05;entryY=0.717;entryDx=0;entryDy=0;entryPerimeter=0;" edge="1" parent="WIyWlLk6GJQsqaUBKTNV-1" source="FHOCbS_1Dj6Ym-kuLduI-3" target="FHOCbS_1Dj6Ym-kuLduI-18">
          <mxGeometry relative="1" as="geometry">
            <mxPoint x="660" y="500" as="sourcePoint" />
            <mxPoint x="820" y="500" as="targetPoint" />
          </mxGeometry>
        </mxCell>
        <mxCell id="FHOCbS_1Dj6Ym-kuLduI-38" value="" style="endArrow=none;html=1;rounded=0;exitX=0.5;exitY=0;exitDx=0;exitDy=0;entryX=0.5;entryY=1;entryDx=0;entryDy=0;" edge="1" parent="WIyWlLk6GJQsqaUBKTNV-1" source="FHOCbS_1Dj6Ym-kuLduI-3" target="FHOCbS_1Dj6Ym-kuLduI-16">
          <mxGeometry relative="1" as="geometry">
            <mxPoint x="600" y="390" as="sourcePoint" />
            <mxPoint x="760" y="390" as="targetPoint" />
          </mxGeometry>
        </mxCell>
        <mxCell id="FHOCbS_1Dj6Ym-kuLduI-39" value="" style="endArrow=none;html=1;rounded=0;exitX=0.5;exitY=0;exitDx=0;exitDy=0;entryX=0.5;entryY=1;entryDx=0;entryDy=0;" edge="1" parent="WIyWlLk6GJQsqaUBKTNV-1" source="FHOCbS_1Dj6Ym-kuLduI-4" target="FHOCbS_1Dj6Ym-kuLduI-21">
          <mxGeometry relative="1" as="geometry">
            <mxPoint x="330" y="650" as="sourcePoint" />
            <mxPoint x="490" y="650" as="targetPoint" />
          </mxGeometry>
        </mxCell>
        <mxCell id="FHOCbS_1Dj6Ym-kuLduI-40" value="" style="endArrow=none;html=1;rounded=0;exitX=1;exitY=0.25;exitDx=0;exitDy=0;entryX=0;entryY=0.5;entryDx=0;entryDy=0;" edge="1" parent="WIyWlLk6GJQsqaUBKTNV-1" source="FHOCbS_1Dj6Ym-kuLduI-3" target="FHOCbS_1Dj6Ym-kuLduI-17">
          <mxGeometry relative="1" as="geometry">
            <mxPoint x="600" y="350" as="sourcePoint" />
            <mxPoint x="760" y="350" as="targetPoint" />
          </mxGeometry>
        </mxCell>
        <mxCell id="FHOCbS_1Dj6Ym-kuLduI-41" value="" style="endArrow=none;html=1;rounded=0;entryX=0;entryY=0.5;entryDx=0;entryDy=0;" edge="1" parent="WIyWlLk6GJQsqaUBKTNV-1" target="FHOCbS_1Dj6Ym-kuLduI-19">
          <mxGeometry relative="1" as="geometry">
            <mxPoint x="670" y="420" as="sourcePoint" />
            <mxPoint x="800" y="390" as="targetPoint" />
          </mxGeometry>
        </mxCell>
        <mxCell id="FHOCbS_1Dj6Ym-kuLduI-42" value="" style="endArrow=none;html=1;rounded=0;exitX=1;exitY=0.25;exitDx=0;exitDy=0;entryX=0.008;entryY=0.675;entryDx=0;entryDy=0;entryPerimeter=0;" edge="1" parent="WIyWlLk6GJQsqaUBKTNV-1" source="FHOCbS_1Dj6Ym-kuLduI-3" target="FHOCbS_1Dj6Ym-kuLduI-20">
          <mxGeometry relative="1" as="geometry">
            <mxPoint x="620" y="360" as="sourcePoint" />
            <mxPoint x="780" y="360" as="targetPoint" />
          </mxGeometry>
        </mxCell>
        <mxCell id="FHOCbS_1Dj6Ym-kuLduI-43" value="" style="endArrow=none;html=1;rounded=0;exitX=1;exitY=1;exitDx=0;exitDy=0;entryX=0;entryY=0.5;entryDx=0;entryDy=0;" edge="1" parent="WIyWlLk6GJQsqaUBKTNV-1" source="FHOCbS_1Dj6Ym-kuLduI-2" target="FHOCbS_1Dj6Ym-kuLduI-15">
          <mxGeometry relative="1" as="geometry">
            <mxPoint x="140" y="500" as="sourcePoint" />
            <mxPoint x="300" y="500" as="targetPoint" />
          </mxGeometry>
        </mxCell>
        <mxCell id="FHOCbS_1Dj6Ym-kuLduI-44" value="" style="endArrow=none;html=1;rounded=0;exitX=1;exitY=0.25;exitDx=0;exitDy=0;entryX=0.052;entryY=0.363;entryDx=0;entryDy=0;entryPerimeter=0;" edge="1" parent="WIyWlLk6GJQsqaUBKTNV-1" source="FHOCbS_1Dj6Ym-kuLduI-2" target="FHOCbS_1Dj6Ym-kuLduI-14">
          <mxGeometry relative="1" as="geometry">
            <mxPoint x="190" y="460" as="sourcePoint" />
            <mxPoint x="350" y="460" as="targetPoint" />
          </mxGeometry>
        </mxCell>
        <mxCell id="FHOCbS_1Dj6Ym-kuLduI-46" value="" style="endArrow=none;html=1;rounded=0;exitX=1;exitY=0.5;exitDx=0;exitDy=0;entryX=0;entryY=0.5;entryDx=0;entryDy=0;" edge="1" parent="WIyWlLk6GJQsqaUBKTNV-1" source="FHOCbS_1Dj6Ym-kuLduI-13" target="FHOCbS_1Dj6Ym-kuLduI-2">
          <mxGeometry relative="1" as="geometry">
            <mxPoint x="120" y="480" as="sourcePoint" />
            <mxPoint x="280" y="480" as="targetPoint" />
          </mxGeometry>
        </mxCell>
        <mxCell id="FHOCbS_1Dj6Ym-kuLduI-48" value="" style="endArrow=none;html=1;rounded=0;exitX=1.014;exitY=0.172;exitDx=0;exitDy=0;exitPerimeter=0;entryX=0;entryY=0;entryDx=0;entryDy=0;" edge="1" parent="WIyWlLk6GJQsqaUBKTNV-1" source="FHOCbS_1Dj6Ym-kuLduI-1" target="FHOCbS_1Dj6Ym-kuLduI-12">
          <mxGeometry relative="1" as="geometry">
            <mxPoint x="550" y="160" as="sourcePoint" />
            <mxPoint x="710" y="160" as="targetPoint" />
          </mxGeometry>
        </mxCell>
        <mxCell id="FHOCbS_1Dj6Ym-kuLduI-51" value="" style="endArrow=none;html=1;rounded=0;exitX=1.028;exitY=0.144;exitDx=0;exitDy=0;exitPerimeter=0;entryX=0;entryY=0.5;entryDx=0;entryDy=0;" edge="1" parent="WIyWlLk6GJQsqaUBKTNV-1" source="FHOCbS_1Dj6Ym-kuLduI-1" target="FHOCbS_1Dj6Ym-kuLduI-11">
          <mxGeometry relative="1" as="geometry">
            <mxPoint x="690" y="130" as="sourcePoint" />
            <mxPoint x="850" y="130" as="targetPoint" />
          </mxGeometry>
        </mxCell>
        <mxCell id="FHOCbS_1Dj6Ym-kuLduI-52" value="" style="endArrow=none;html=1;rounded=0;exitX=0.451;exitY=-0.022;exitDx=0;exitDy=0;exitPerimeter=0;entryX=0.425;entryY=1.029;entryDx=0;entryDy=0;entryPerimeter=0;" edge="1" parent="WIyWlLk6GJQsqaUBKTNV-1" source="FHOCbS_1Dj6Ym-kuLduI-1" target="FHOCbS_1Dj6Ym-kuLduI-10">
          <mxGeometry relative="1" as="geometry">
            <mxPoint x="680" y="60" as="sourcePoint" />
            <mxPoint x="840" y="60" as="targetPoint" />
          </mxGeometry>
        </mxCell>
        <mxCell id="FHOCbS_1Dj6Ym-kuLduI-53" value="" style="endArrow=none;html=1;rounded=0;exitX=1;exitY=0;exitDx=0;exitDy=0;entryX=0.05;entryY=0.696;entryDx=0;entryDy=0;entryPerimeter=0;" edge="1" parent="WIyWlLk6GJQsqaUBKTNV-1" source="FHOCbS_1Dj6Ym-kuLduI-0" target="FHOCbS_1Dj6Ym-kuLduI-7">
          <mxGeometry relative="1" as="geometry">
            <mxPoint x="270" y="110" as="sourcePoint" />
            <mxPoint x="430" y="110" as="targetPoint" />
          </mxGeometry>
        </mxCell>
        <mxCell id="FHOCbS_1Dj6Ym-kuLduI-54" value="" style="endArrow=none;html=1;rounded=0;entryX=0;entryY=1;entryDx=0;entryDy=0;exitX=1;exitY=0.75;exitDx=0;exitDy=0;" edge="1" parent="WIyWlLk6GJQsqaUBKTNV-1" source="FHOCbS_1Dj6Ym-kuLduI-0" target="FHOCbS_1Dj6Ym-kuLduI-6">
          <mxGeometry relative="1" as="geometry">
            <mxPoint x="280" y="139.17" as="sourcePoint" />
            <mxPoint x="440" y="139.17" as="targetPoint" />
          </mxGeometry>
        </mxCell>
        <mxCell id="FHOCbS_1Dj6Ym-kuLduI-55" value="" style="endArrow=none;html=1;rounded=0;exitX=0.431;exitY=0.006;exitDx=0;exitDy=0;exitPerimeter=0;entryX=0.5;entryY=1;entryDx=0;entryDy=0;" edge="1" parent="WIyWlLk6GJQsqaUBKTNV-1" source="FHOCbS_1Dj6Ym-kuLduI-0" target="FHOCbS_1Dj6Ym-kuLduI-9">
          <mxGeometry relative="1" as="geometry">
            <mxPoint x="190" y="100" as="sourcePoint" />
            <mxPoint x="350" y="100" as="targetPoint" />
          </mxGeometry>
        </mxCell>
        <mxCell id="FHOCbS_1Dj6Ym-kuLduI-57" value="" style="edgeStyle=entityRelationEdgeStyle;fontSize=12;html=1;endArrow=ERoneToMany;rounded=0;exitX=1;exitY=0.5;exitDx=0;exitDy=0;entryX=0;entryY=0.5;entryDx=0;entryDy=0;" edge="1" parent="WIyWlLk6GJQsqaUBKTNV-1" source="FHOCbS_1Dj6Ym-kuLduI-0" target="FHOCbS_1Dj6Ym-kuLduI-56">
          <mxGeometry width="100" height="100" relative="1" as="geometry">
            <mxPoint x="260" y="120" as="sourcePoint" />
            <mxPoint x="530" y="120" as="targetPoint" />
          </mxGeometry>
        </mxCell>
        <mxCell id="FHOCbS_1Dj6Ym-kuLduI-56" value="memeriksa" style="shape=rhombus;perimeter=rhombusPerimeter;whiteSpace=wrap;html=1;align=center;" vertex="1" parent="WIyWlLk6GJQsqaUBKTNV-1">
          <mxGeometry x="350" y="90" width="120" height="60" as="geometry" />
        </mxCell>
        <mxCell id="FHOCbS_1Dj6Ym-kuLduI-58" value="" style="edgeStyle=entityRelationEdgeStyle;fontSize=12;html=1;endArrow=ERoneToMany;rounded=0;entryX=0.583;entryY=0.992;entryDx=0;entryDy=0;entryPerimeter=0;exitX=0.5;exitY=0;exitDx=0;exitDy=0;" edge="1" parent="WIyWlLk6GJQsqaUBKTNV-1" source="FHOCbS_1Dj6Ym-kuLduI-2" target="FHOCbS_1Dj6Ym-kuLduI-59">
          <mxGeometry width="100" height="100" relative="1" as="geometry">
            <mxPoint x="240" y="400" as="sourcePoint" />
            <mxPoint x="210" y="150" as="targetPoint" />
            <Array as="points">
              <mxPoint x="220" y="210" />
            </Array>
          </mxGeometry>
        </mxCell>
        <mxCell id="FHOCbS_1Dj6Ym-kuLduI-59" value="membantu" style="shape=rhombus;perimeter=rhombusPerimeter;whiteSpace=wrap;html=1;align=center;" vertex="1" parent="WIyWlLk6GJQsqaUBKTNV-1">
          <mxGeometry x="90" y="240" width="120" height="60" as="geometry" />
        </mxCell>
        <mxCell id="FHOCbS_1Dj6Ym-kuLduI-60" value="" style="edgeStyle=entityRelationEdgeStyle;fontSize=12;html=1;endArrow=ERoneToMany;rounded=0;exitX=0.382;exitY=0.978;exitDx=0;exitDy=0;exitPerimeter=0;entryX=1;entryY=0.25;entryDx=0;entryDy=0;" edge="1" parent="WIyWlLk6GJQsqaUBKTNV-1" source="FHOCbS_1Dj6Ym-kuLduI-3" target="FHOCbS_1Dj6Ym-kuLduI-61">
          <mxGeometry width="100" height="100" relative="1" as="geometry">
            <mxPoint x="596" y="459" as="sourcePoint" />
            <mxPoint x="500" y="655" as="targetPoint" />
          </mxGeometry>
        </mxCell>
        <mxCell id="FHOCbS_1Dj6Ym-kuLduI-61" value="memberi" style="shape=rhombus;perimeter=rhombusPerimeter;whiteSpace=wrap;html=1;align=center;" vertex="1" parent="WIyWlLk6GJQsqaUBKTNV-1">
          <mxGeometry x="550" y="512.5" width="120" height="60" as="geometry" />
        </mxCell>
        <mxCell id="FHOCbS_1Dj6Ym-kuLduI-62" value="" style="edgeStyle=entityRelationEdgeStyle;fontSize=12;html=1;endArrow=ERoneToMany;rounded=0;exitX=1;exitY=1;exitDx=0;exitDy=0;entryX=0;entryY=0.5;entryDx=0;entryDy=0;" edge="1" parent="WIyWlLk6GJQsqaUBKTNV-1" source="FHOCbS_1Dj6Ym-kuLduI-0" target="FHOCbS_1Dj6Ym-kuLduI-63">
          <mxGeometry width="100" height="100" relative="1" as="geometry">
            <mxPoint x="260" y="150" as="sourcePoint" />
            <mxPoint x="547" y="439" as="targetPoint" />
          </mxGeometry>
        </mxCell>
        <mxCell id="FHOCbS_1Dj6Ym-kuLduI-63" value="meresepkan" style="shape=rhombus;perimeter=rhombusPerimeter;whiteSpace=wrap;html=1;align=center;" vertex="1" parent="WIyWlLk6GJQsqaUBKTNV-1">
          <mxGeometry x="390" y="320" width="120" height="60" as="geometry" />
        </mxCell>
        <mxCell id="FHOCbS_1Dj6Ym-kuLduI-69" value="Diagnosa" style="ellipse;html=1;whiteSpace=wrap;" vertex="1" parent="WIyWlLk6GJQsqaUBKTNV-1">
          <mxGeometry x="680" y="180" width="100" height="40" as="geometry" />
        </mxCell>
        <mxCell id="FHOCbS_1Dj6Ym-kuLduI-70" value="" style="endArrow=none;html=1;rounded=0;exitX=1;exitY=0.75;exitDx=0;exitDy=0;" edge="1" parent="WIyWlLk6GJQsqaUBKTNV-1" source="FHOCbS_1Dj6Ym-kuLduI-1" target="FHOCbS_1Dj6Ym-kuLduI-69">
          <mxGeometry relative="1" as="geometry">
            <mxPoint x="510" y="190" as="sourcePoint" />
            <mxPoint x="670" y="190" as="targetPoint" />
          </mxGeometry>
        </mxCell>
        <mxCell id="FHOCbS_1Dj6Ym-kuLduI-71" value="Diagnosa" style="ellipse;html=1;whiteSpace=wrap;" vertex="1" parent="WIyWlLk6GJQsqaUBKTNV-1">
          <mxGeometry x="520" y="320" width="70" height="20" as="geometry" />
        </mxCell>
        <mxCell id="FHOCbS_1Dj6Ym-kuLduI-72" value="Nm_pasien" style="ellipse;html=1;whiteSpace=wrap;" vertex="1" parent="WIyWlLk6GJQsqaUBKTNV-1">
          <mxGeometry x="517" y="290" width="76" height="20" as="geometry" />
        </mxCell>
        <mxCell id="FHOCbS_1Dj6Ym-kuLduI-73" value="" style="endArrow=none;html=1;rounded=0;exitX=0;exitY=0.5;exitDx=0;exitDy=0;entryX=0;entryY=0.5;entryDx=0;entryDy=0;" edge="1" parent="WIyWlLk6GJQsqaUBKTNV-1" source="FHOCbS_1Dj6Ym-kuLduI-72" target="FHOCbS_1Dj6Ym-kuLduI-71">
          <mxGeometry relative="1" as="geometry">
            <mxPoint x="690" y="225" as="sourcePoint" />
            <mxPoint x="748" y="272" as="targetPoint" />
            <Array as="points">
              <mxPoint x="470" y="330" />
            </Array>
          </mxGeometry>
        </mxCell>
        <mxCell id="FHOCbS_1Dj6Ym-kuLduI-74" value="&lt;u&gt;Id_pasien&lt;/u&gt;" style="ellipse;html=1;whiteSpace=wrap;" vertex="1" parent="WIyWlLk6GJQsqaUBKTNV-1">
          <mxGeometry x="447" y="495" width="83" height="30" as="geometry" />
        </mxCell>
        <mxCell id="FHOCbS_1Dj6Ym-kuLduI-75" value="&lt;u&gt;Kode_obat&lt;/u&gt;" style="ellipse;html=1;whiteSpace=wrap;" vertex="1" parent="WIyWlLk6GJQsqaUBKTNV-1">
          <mxGeometry x="450" y="530" width="80" height="25" as="geometry" />
        </mxCell>
        <mxCell id="FHOCbS_1Dj6Ym-kuLduI-76" value="" style="endArrow=none;html=1;rounded=0;exitX=1;exitY=0.5;exitDx=0;exitDy=0;entryX=1;entryY=0.5;entryDx=0;entryDy=0;" edge="1" parent="WIyWlLk6GJQsqaUBKTNV-1" source="FHOCbS_1Dj6Ym-kuLduI-74" target="FHOCbS_1Dj6Ym-kuLduI-75">
          <mxGeometry relative="1" as="geometry">
            <mxPoint x="837" y="560" as="sourcePoint" />
            <mxPoint x="900" y="565" as="targetPoint" />
            <Array as="points">
              <mxPoint x="580" y="530" />
            </Array>
          </mxGeometry>
        </mxCell>
      </root>
    </mxGraphModel>
  </diagram>
</mxfile>
